HIERARCHY
ROOT pelvis
{
  OFFSET 0 100 0
  CHANNELS 6 Xposition Yposition Zposition Zrotation Xrotation Yrotation
  JOINT pelvis_right_femur
  {
    OFFSET -10.78128 -3.44521 -0.5502486
    CHANNELS 3 Zrotation Xrotation Yrotation
    JOINT right_femur_tibia
    {
      OFFSET -0.8047443 -44.0398 -0.1307829
      CHANNELS 3 Zrotation Xrotation Yrotation
      JOINT right_tibia_foot
      {
        OFFSET 3.006224 -47.83518 -5
        CHANNELS 3 Zrotation Xrotation Yrotation
        End Site
        {
          OFFSET 0 -5 15
        }
      }
    }
  }
  JOINT pelvis_left_femur
  {
    OFFSET 10.78128 -3.44521 -0.5502486
    CHANNELS 3 Zrotation Xrotation Yrotation
    JOINT left_femur_tibia
    {
      OFFSET 0.8047443 -44.0398 -0.1307829
      CHANNELS 3 Zrotation Xrotation Yrotation
      JOINT left_tibia_foot
      {
        OFFSET -4.370144 -48.10324 -4.275266
        CHANNELS 3 Zrotation Xrotation Yrotation
        End Site
        {
          OFFSET 0 -5 15
        }
      }
    }
  }
  JOINT pelvis_spine1
  {
    OFFSET 0 6.468898 -3.129235
    CHANNELS 3 Zrotation Xrotation Yrotation
    JOINT spine1
    {
      OFFSET 0 23.15396 4.99043
      CHANNELS 3 Zrotation Xrotation Yrotation
      JOINT spine2
      {
        OFFSET 0 20.79997 -5.064912
        CHANNELS 3 Zrotation Xrotation Yrotation
        JOINT neck
        {
          OFFSET 0 14.38658 9.616178
          CHANNELS 3 Zrotation Xrotation Yrotation
          End Site
          {
            OFFSET 0 20 0
          }
        }
      }
      JOINT right_manubrium
      {
        OFFSET -5.722621 16.35077 3.967754
        CHANNELS 3 Zrotation Xrotation Yrotation
        JOINT right_clavicle
        {
          OFFSET -13.16364 1.694482 -4.693211
          CHANNELS 3 Zrotation Xrotation Yrotation
          JOINT right_humerus
          {
            OFFSET -28.5034 -0.3100689 -2.792744
            CHANNELS 3 Zrotation Xrotation Yrotation
            JOINT right_radius
            {
              OFFSET -25.15693 0.02248979 -1.271978
              CHANNELS 3 Zrotation Xrotation Yrotation
              End Site
              {
                OFFSET -15 0 0
              }
            }
          }
        }
      }
      JOINT left_manubrium
      {
        OFFSET 5.722621 16.35077 3.967754
        CHANNELS 3 Zrotation Xrotation Yrotation
        JOINT left_clavicle
        {
          OFFSET 13.16364 1.694482 -4.693211
          CHANNELS 3 Zrotation Xrotation Yrotation
          JOINT left_humerus
          {
            OFFSET 29.39168 -1.063119 -2.237045
            CHANNELS 3 Zrotation Xrotation Yrotation
            JOINT left_radius
            {
              OFFSET 24.59957 -0.9528479 0.9047498
              CHANNELS 3 Zrotation Xrotation Yrotation
              End Site
              {
                OFFSET 15 -0 -0
              }
            }
          }
        }
      }
    }
  }
}
MOTION
Frames: 11
Frame Time: 0.0416666666667
0 103.5113 0 1.441855 -0.5506769 -0.01243635 3.266728 -16.66628 10.18196 -0 38.95116 -0 -5.260161 -17.05664 -2.904211 -7.69287 9.709926 -23.30657 -0 3.486408 -0 15.37526 -13.3954 30.34054 -4.626596 -4.146565 4.985794 2.810427 10.60386 -7.658427 1.296399 21.74519 6.71209 2.884313 -24.81014 9.763031 6.847042 -20.24058 12.05414 85.30526 38.33483 -17.94089 -0 0 15.97141 -6.576143 8.223458 4.232048 6.046277 -19.54103 -1.394816 -91.5098 20.94069 19.6206 0 0 -15.0471 15.81304 13.97552 -4.847983
0.3472928 104.0076 1.562841 1.131121 -0.1037936 -0.03882295 3.922901 -18.45487 10.28807 -0 37.63015 -0 -5.004321 -16.5477 -2.724762 -7.505385 9.678183 -22.8387 -0 4.129983 -0 15.33669 -13.71087 29.91945 -4.329646 -3.906829 5.062228 2.901421 10.62896 -7.681654 1.403804 21.47827 6.648688 2.813052 -25.15115 9.914041 6.756772 -20.2747 12.04464 85.25814 38.09748 -17.92358 -0 0 16.1471 -6.380192 8.345772 4.103375 6.151638 -19.59817 -1.346467 -91.45312 20.39555 19.69381 0 0 -15.33853 16.38206 13.56536 -5.348668
0.7154106 104.4564 3.467432 0.5712276 0.5976657 0.01148641 4.787174 -21.6571 9.546785 -0 35.11167 -0 -5.214146 -14.04546 -2.116906 -7.126231 9.738965 -21.75287 -0 5.153427 -0 14.32539 -14.75108 28.316 -3.748024 -3.366195 4.947723 2.958454 10.68456 -7.727308 1.427971 21.15485 6.756904 2.955872 -25.67005 9.950897 6.548502 -20.24537 12.06935 85.48247 37.53033 -18.22734 -0 0 15.87793 -6.906282 8.596683 4.404558 6.33125 -20.04298 -1.556064 -91.32432 20.08269 19.82665 0 0 -16.39404 16.44619 13.38903 -5.050746
1.08419 104.8112 5.684815 0.1855948 1.224526 0.1093444 5.55022 -24.33252 9.155391 -0 32.09549 -0 -5.093637 -12.68784 -1.807292 -6.851177 10.03235 -20.85173 -0 6.343176 -0 13.47691 -15.74359 27.08431 -3.355766 -2.977336 4.936026 3.050627 10.57243 -7.768392 1.533977 20.90088 6.712784 2.951899 -26.00355 10.01028 6.299478 -20.0899 11.9869 85.67423 36.98297 -18.56481 -0 0 15.64545 -6.989908 8.744933 4.399926 6.493348 -20.3131 -1.614771 -91.12279 20.03261 19.67418 0 0 -17.48947 16.33616 13.20135 -4.703627
1.439649 105.0752 8.167101 -0.09967406 1.783738 0.2267908 6.223029 -26.4715 9.009414 -0 29.13456 -0 -4.852015 -12.03445 -1.715743 -6.638419 10.50686 -20.21933 -0 7.585754 -0 12.52123 -16.74099 26.06986 -3.084894 -2.683821 4.943373 3.15902 10.30748 -7.804611 1.672029 20.72981 6.611774 2.897876 -26.22995 10.07196 6.075789 -19.83852 11.83288 85.82159 36.53007 -18.92964 -0 0 15.43987 -6.762065 8.776097 4.220808 6.596488 -20.40789 -1.579176 -91.04883 20.50333 19.53444 0 0 -18.46386 15.73752 13.18669 -3.863723
1.785692 105.2413 10.93471 -0.3377846 2.250134 0.3836847 6.610387 -28.38225 8.416034 -0 26.28102 -0 -4.93133 -10.78969 -1.489702 -6.446758 10.95765 -19.50098 -0 8.529715 -0 11.38039 -17.73775 24.80615 -2.84384 -2.396529 4.852329 3.211882 10.0992 -7.843814 1.720018 20.63201 6.609476 2.955463 -26.38222 10.02563 5.845721 -19.57604 11.71778 86.09377 36.10185 -19.38334 -0 0 14.97278 -6.9738 8.840304 4.304602 6.713283 -20.67722 -1.666391 -90.85945 20.99599 19.27549 0 0 -19.58801 15.04154 13.29994 -2.909073
2.130991 105.2368 14.14216 -0.5324532 2.599388 0.6430037 6.439368 -30.59834 6.522923 -0 22.6323 -0 -5.662452 -7.856777 -0.8456691 -6.245092 11.44624 -18.16083 -0 8.973435 -0 9.826253 -18.93562 22.66687 -2.577093 -2.027024 4.549677 3.144697 10.05171 -7.900393 1.59643 20.63472 6.782517 3.212082 -26.36312 9.737998 5.443402 -19.25393 11.673 86.76756 35.41412 -20.11893 -0 0 13.78446 -8.350143 9.057631 5.01922 6.958489 -21.51858 -2.08606 -90.07793 21.10768 18.35879 0 0 -21.53503 14.5189 13.49358 -2.147787
2.461673 104.9075 18.03392 -0.5650276 2.650293 1.051302 5.43006 -32.9961 2.992735 -0 17.16218 -0 -6.955286 -3.618141 0.07525833 -6.07068 12.40426 -15.969 -0 9.034005 -0 7.656304 -20.44678 19.49975 -2.355952 -1.61715 4.003203 2.925762 10.024 -7.952526 1.364152 20.86609 6.992111 3.537562 -25.84823 9.150527 4.614073 -18.65678 11.57179 88.02668 33.99977 -21.24456 -0 0 11.56746 -10.94672 9.305493 6.307352 7.378363 -22.98173 -2.860491 -88.33668 20.87331 16.06641 0 0 -24.70898 14.05001 13.78076 -1.602648
2.735008 104.1194 22.79289 -0.3138442 2.211149 1.589261 3.660931 -34.64637 -1.489181 -0 10.07581 -0 -8.328182 0.1321201 0.7089245 -6.012885 14.29967 -13.34056 -0 8.998117 -0 4.941966 -21.99693 15.88431 -2.292068 -1.360973 3.275143 2.592253 9.753042 -7.981745 1.167467 21.44386 7.00909 3.688724 -24.58667 8.358242 3.27273 -17.60935 11.25638 89.76194 31.68206 -22.64015 -0 0 8.513008 -13.95773 9.304598 7.659481 7.869209 -24.65128 -3.779215 -85.80125 20.71757 12.22613 0 0 -28.68615 13.2217 14.22869 -0.9816493
2.913483 102.9199 28.43872 0.09915972 1.309745 2.189202 1.879962 -34.7251 -5.467326 -0 3.432718 -0 -9.383257 1.945382 0.5780054 -6.042763 17.00717 -10.97787 -0 9.271717 -0 2.092222 -22.87081 12.63742 -2.287937 -1.415771 2.452028 2.223984 9.197391 -8.010066 1.077801 22.28264 6.76612 3.543668 -22.78097 7.581551 1.656487 -16.24608 10.75046 91.62472 28.83353 -23.98062 -0 0 5.316539 -16.41065 8.960851 8.588402 8.215639 -25.97078 -4.601336 -83.14198 20.87815 7.696228 0 0 -32.26936 11.9166 14.79488 -0.1014967
2.974326 101.6656 34.81822 0.223776 0.1218856 2.714053 1.425116 -32.96639 -7.05644 -0 0.4784291 -0 -9.97733 1.225556 -0.5475149 -5.834028 19.70764 -9.529497 -0 11.50674 -0 -0.5362886 -22.01997 10.41788 -1.915302 -1.760379 1.656638 1.915129 8.550753 -8.04103 1.141821 23.09917 6.295591 3.054211 -21.03964 7.11224 0.1717769 -14.95103 10.20305 93.17465 25.9946 -24.8383 -0 0 3.034977 -17.36645 8.382537 8.721594 8.089127 -26.31574 -5.1443 -81.42037 21.5918 4.343524 0 0 -33.68038 10.18135 15.31328 1.287696
